<svg width="25" height="24" viewBox="0 0 25 24" fill="none" xmlns="http://www.w3.org/2000/svg">
<path d="M13.2939 5.57402C10.1364 5.57402 7.46499 7.64287 6.55711 10.4951C7.90688 9.81215 9.42939 9.43052 11.0443 9.43052H14.5794C14.9329 9.43052 15.2222 9.71975 15.2222 10.0733C15.2222 10.4268 14.9329 10.716 14.5794 10.716H13.9367H11.0443C10.3774 10.716 9.73068 10.7923 9.104 10.9329C8.06355 11.17 7.09943 11.5918 6.23573 12.1662C3.90577 13.7209 2.36719 16.3762 2.36719 19.3931V20.0359C2.36719 20.5702 2.79703 21 3.33131 21C3.8656 21 4.29543 20.5702 4.29543 20.0359V19.3931C4.29543 17.4368 5.12699 15.6772 6.45668 14.444C7.25208 17.4769 10.0119 19.7145 13.2939 19.7145H13.3341C18.6408 19.6864 22.9352 14.456 22.9352 8.00843C22.9352 6.29711 22.6339 4.67015 22.0875 3.20388C21.9831 2.9267 21.5774 2.93875 21.4368 3.19987C20.6815 4.61391 19.1871 5.57402 17.4718 5.57402H13.2939Z" fill="white"/>
</svg>
