<svg width="25" height="25" viewBox="0 0 25 25" fill="none" xmlns="http://www.w3.org/2000/svg">
<path d="M20.1381 8.63873H14.9961V7.35323H20.1381V8.63873ZM4.06936 4.78223C3.00481 4.78223 2.14111 5.64592 2.14111 6.71048V9.28148C2.14111 10.346 3.00481 11.2097 4.06936 11.2097H20.7809C21.8454 11.2097 22.7091 10.346 22.7091 9.28148V6.71048C22.7091 5.64592 21.8454 4.78223 20.7809 4.78223H4.06936ZM20.1381 16.3517V17.6372H9.85411V16.3517H20.1381ZM4.06936 13.7807C3.00481 13.7807 2.14111 14.6444 2.14111 15.709V18.28C2.14111 19.3445 3.00481 20.2082 4.06936 20.2082H20.7809C21.8454 20.2082 22.7091 19.3445 22.7091 18.28V15.709C22.7091 14.6444 21.8454 13.7807 20.7809 13.7807H4.06936Z" fill="white"/>
</svg>
