<svg width="25" height="25" viewBox="0 0 25 25" fill="none" xmlns="http://www.w3.org/2000/svg">
<path d="M13.0678 6.06914C9.91034 6.06914 7.23892 8.13799 6.33103 10.9902C7.68081 10.3073 9.20332 9.92563 10.8182 9.92563H14.3533C14.7069 9.92563 14.9961 10.2149 14.9961 10.5684C14.9961 10.9219 14.7069 11.2111 14.3533 11.2111H13.7106H10.8182C10.1514 11.2111 9.50461 11.2875 8.87793 11.4281C7.83748 11.6651 6.87335 12.0869 6.00966 12.6613C3.67969 14.216 2.14111 16.8713 2.14111 19.8882V20.531C2.14111 21.0653 2.57095 21.4951 3.10524 21.4951C3.63952 21.4951 4.06936 21.0653 4.06936 20.531V19.8882C4.06936 17.9319 4.90092 16.1724 6.2306 14.9391C7.02601 17.972 9.78581 20.2096 13.0678 20.2096H13.108C18.4147 20.1815 22.7091 14.9511 22.7091 8.50355C22.7091 6.79223 22.4078 5.16527 21.8615 3.699C21.757 3.42181 21.3513 3.43387 21.2107 3.69498C20.4554 5.10903 18.9611 6.06914 17.2457 6.06914H13.0678Z" fill="white"/>
</svg>
