<svg width="19" height="15" viewBox="0 0 19 15" fill="none" xmlns="http://www.w3.org/2000/svg">
<path d="M16.1328 5.17188C16.7083 5.17188 17.2602 4.94326 17.6672 4.53632C18.0741 4.12938 18.3027 3.57745 18.3027 3.00195C18.3027 2.42645 18.0741 1.87453 17.6672 1.46759C17.2602 1.06065 16.7083 0.832031 16.1328 0.832031C15.5573 0.832031 15.0054 1.06065 14.5984 1.46759C14.1915 1.87453 13.9629 2.42645 13.9629 3.00195C13.9629 3.57745 14.1915 4.12938 14.5984 4.53632C15.0054 4.94326 15.5573 5.17188 16.1328 5.17188ZM2.45959 14.7195H11.2803H13.3146H16.6455C17.5622 14.7195 18.3027 13.9763 18.3027 13.0623C18.3027 12.7585 18.2186 12.4601 18.0613 12.1997L14.481 6.33278C14.3698 6.15105 14.1745 6.03984 13.9629 6.03984C13.7513 6.03984 13.556 6.15105 13.4448 6.33007L12.1374 8.47287L8.72253 3.02908C8.54351 2.74156 8.22616 2.56797 7.88711 2.56797C7.54806 2.56797 7.23342 2.74156 7.05169 3.02908L1.17663 12.3977C1.02473 12.6391 0.943359 12.9185 0.943359 13.2033C0.943359 14.0414 1.62146 14.7195 2.45959 14.7195Z" fill="black"/>
</svg>
