<svg width="9" height="15" viewBox="0 0 9 15" fill="none" xmlns="http://www.w3.org/2000/svg">
<g clip-path="url(#clip0_7771_29073)">
<path d="M3.33857 2.13227C3.33857 1.7869 3.47577 1.45569 3.71997 1.21148C3.96418 0.967272 4.2954 0.830078 4.64076 0.830078C4.98612 0.830078 5.31734 0.967272 5.56155 1.21148C5.80575 1.45569 5.94295 1.7869 5.94295 2.13227C5.94295 2.47763 5.80575 2.80884 5.56155 3.05305C5.31734 3.29726 4.98612 3.43445 4.64076 3.43445C4.2954 3.43445 3.96418 3.29726 3.71997 3.05305C3.47577 2.80884 3.33857 2.47763 3.33857 2.13227ZM4.42373 10.3795V13.852C4.42373 14.3321 4.03579 14.7201 3.5556 14.7201C3.07542 14.7201 2.68748 14.3321 2.68748 13.852V7.79949L1.91159 9.09083C1.66472 9.50048 1.13028 9.63341 0.720633 9.38654C0.310987 9.13966 0.178055 8.60522 0.424928 8.19558L2.00654 5.56407C2.47859 4.78005 3.32501 4.29987 4.23925 4.29987H5.04498C5.95922 4.29987 6.80565 4.78005 7.27769 5.56407L8.8593 8.19558C9.10618 8.60522 8.97325 9.13966 8.5636 9.38654C8.15395 9.63341 7.61951 9.50048 7.37264 9.09083L6.59404 7.79949V13.852C6.59404 14.3321 6.2061 14.7201 5.72592 14.7201C5.24573 14.7201 4.85779 14.3321 4.85779 13.852V10.3795H4.42373Z" fill="black"/>
</g>
<defs>
<clipPath id="clip0_7771_29073">
<rect width="8.68125" height="13.89" fill="white" transform="translate(0.302734 0.830078)"/>
</clipPath>
</defs>
</svg>
