<svg width="19" height="15" viewBox="0 0 19 15" fill="none" xmlns="http://www.w3.org/2000/svg">
<g clip-path="url(#clip0_7771_29078)">
<path d="M4.84992 0.830078C5.42552 0.830078 5.97755 1.05874 6.38456 1.46575C6.79158 1.87276 7.02023 2.42479 7.02023 3.00039C7.02023 3.57599 6.79158 4.12802 6.38456 4.53503C5.97755 4.94205 5.42552 5.1707 4.84992 5.1707C4.27432 5.1707 3.72229 4.94205 3.31528 4.53503C2.90827 4.12802 2.67961 3.57599 2.67961 3.00039C2.67961 2.42479 2.90827 1.87276 3.31528 1.46575C3.72229 1.05874 4.27432 0.830078 4.84992 0.830078ZM14.8334 0.830078C15.409 0.830078 15.961 1.05874 16.368 1.46575C16.775 1.87276 17.0037 2.42479 17.0037 3.00039C17.0037 3.57599 16.775 4.12802 16.368 4.53503C15.961 4.94205 15.409 5.1707 14.8334 5.1707C14.2578 5.1707 13.7057 4.94205 13.2987 4.53503C12.8917 4.12802 12.663 3.57599 12.663 3.00039C12.663 2.42479 12.8917 1.87276 13.2987 1.46575C13.7057 1.05874 14.2578 0.830078 14.8334 0.830078ZM0.943359 8.93348C0.943359 7.33559 2.24012 6.03883 3.83801 6.03883H4.99642C5.42777 6.03883 5.83741 6.13378 6.20637 6.30198C6.1711 6.49731 6.15482 6.70077 6.15482 6.90695C6.15482 7.94328 6.61059 8.8738 7.3295 9.51133C7.32408 9.51133 7.31865 9.51133 7.31051 9.51133H1.52121C1.2038 9.51133 0.943359 9.25089 0.943359 8.93348ZM11.9387 9.51133C11.9333 9.51133 11.9279 9.51133 11.9197 9.51133C12.6413 8.8738 13.0944 7.94328 13.0944 6.90695C13.0944 6.70077 13.0754 6.50002 13.0429 6.30198C13.4118 6.13107 13.8215 6.03883 14.2528 6.03883H15.4112C17.0091 6.03883 18.3059 7.33559 18.3059 8.93348C18.3059 9.2536 18.0454 9.51133 17.728 9.51133H11.9414H11.9387ZM7.02023 6.90695C7.02023 6.21623 7.29462 5.5538 7.78304 5.06538C8.27145 4.57697 8.93389 4.30258 9.62461 4.30258C10.3153 4.30258 10.9778 4.57697 11.4662 5.06538C11.9546 5.5538 12.229 6.21623 12.229 6.90695C12.229 7.59768 11.9546 8.26011 11.4662 8.74852C10.9778 9.23694 10.3153 9.51133 9.62461 9.51133C8.93389 9.51133 8.27145 9.23694 7.78304 8.74852C7.29462 8.26011 7.02023 7.59768 7.02023 6.90695ZM4.41586 13.9957C4.41586 11.999 6.03545 10.3795 8.03214 10.3795H11.2144C13.2138 10.3795 14.8334 11.999 14.8334 13.9957C14.8334 14.3945 14.5105 14.7201 14.109 14.7201H5.13749C4.73869 14.7201 4.41315 14.3972 4.41315 13.9957H4.41586Z" fill="black"/>
</g>
<defs>
<clipPath id="clip0_7771_29078">
<rect width="17.3625" height="13.89" fill="white" transform="translate(0.943359 0.830078)"/>
</clipPath>
</defs>
</svg>
