<svg width="15" height="15" viewBox="0 0 15 15" fill="none" xmlns="http://www.w3.org/2000/svg">
<g clip-path="url(#clip0_7771_29082)">
<path d="M14.006 1.93998C14.261 1.68497 14.261 1.27262 14.006 1.02032C13.751 0.768022 13.3386 0.76531 13.0863 1.02032L10.6963 3.40494C10.4413 3.65995 10.4413 4.0723 10.6963 4.3246C10.9513 4.5769 11.3636 4.57961 11.6159 4.3246L14.0033 1.93727L14.006 1.93998ZM8.59379 1.56832C8.4256 1.40012 8.14888 1.40012 7.98068 1.56832L7.67142 1.87488C6.65409 2.8922 6.65409 4.54163 7.67142 5.55896L7.95355 5.8411L7.12613 6.66852C7.03389 5.92791 6.70563 5.209 6.13593 4.63929L5.82937 4.33274C5.66118 4.16454 5.38446 4.16454 5.21626 4.33274L4.90971 4.63929C3.89238 5.65662 3.89238 7.30605 4.90971 8.32338L5.19185 8.60552L4.36442 9.43294C4.27218 8.69233 3.94393 7.97342 3.37422 7.40371L3.06767 7.09444C2.89947 6.92625 2.62276 6.92625 2.45456 7.09444L2.148 7.401C1.13068 8.41833 1.13068 10.0678 2.148 11.0851L2.43014 11.3672L0.560973 13.2364C0.221863 13.5755 0.221863 14.1262 0.560973 14.4653C0.900082 14.8044 1.4508 14.8044 1.7899 14.4653L3.65908 12.5962L3.99005 12.9271C5.00737 13.9445 6.6568 13.9445 7.67413 12.9271L7.98068 12.6206C8.14888 12.4524 8.14888 12.1757 7.98068 12.0075L7.67413 11.7009C7.08272 11.1095 6.32854 10.7758 5.55537 10.6999L6.42078 9.83445L6.75175 10.1654C7.76908 11.1827 9.41851 11.1827 10.4358 10.1654L10.7424 9.85886C10.9106 9.69066 10.9106 9.41395 10.7424 9.24575L10.4358 8.9392C9.84443 8.34779 9.09025 8.01411 8.31708 7.93815L9.18249 7.07274L9.51346 7.40371C10.5308 8.42104 12.1802 8.42104 13.1975 7.40371L13.5041 7.09444C13.6723 6.92625 13.6723 6.64953 13.5041 6.48134L13.1975 6.17207C13.0565 6.031 12.91 5.90621 12.7526 5.79498L14.006 4.54434C14.261 4.28933 14.261 3.87698 14.006 3.62468C13.751 3.37238 13.3386 3.36967 13.0863 3.62468L11.4749 5.23613C10.916 5.11676 10.3355 5.13575 9.78475 5.2931C9.95023 4.71525 9.96379 4.10486 9.82273 3.52159L11.4016 1.93998C11.6566 1.68497 11.6566 1.27262 11.4016 1.02032C11.1466 0.768022 10.7343 0.76531 10.482 1.02032L9.23403 2.26282C9.13366 2.12717 9.02243 1.99695 8.89764 1.87488L8.59379 1.56832Z" fill="black"/>
</g>
<defs>
<clipPath id="clip0_7771_29082">
<rect width="13.89" height="13.89" fill="white" transform="translate(0.306641 0.830078)"/>
</clipPath>
</defs>
</svg>
